<svg width="232" height="44" viewBox="0 0 232 44" fill="none" xmlns="http://www.w3.org/2000/svg">
<path fill-rule="evenodd" clip-rule="evenodd" d="M21.5693 0.772705C33.4617 0.772705 43.1394 10.4489 43.1394 22.3438C43.1394 34.2359 33.4617 43.9118 21.5693 43.9118C9.67621 43.9118 0 34.2359 0 22.3438C0 10.4489 9.67621 0.772705 21.5693 0.772705ZM21.5693 4.23913C11.5856 4.23913 3.46668 12.3601 3.46668 22.3438C3.46668 32.3255 11.5856 40.4454 21.5693 40.4454C31.5513 40.4454 39.6729 32.3255 39.6729 22.3438C39.6729 12.3601 31.5513 4.23913 21.5693 4.23913ZM21.7126 6.1656L25.4055 9.90039L30.5283 8.85502L31.6351 14.0159L36.5056 15.9318L34.6764 20.876L37.7466 25.1501L33.5598 28.3115L33.8563 33.582L28.6429 33.9575L26.0712 38.554L21.4859 36.0204L16.8625 38.4838L14.3609 33.8486L9.15385 33.3942L9.53031 28.1289L5.39297 24.9043L8.52733 20.6774L6.77242 15.7059L11.6705 13.8639L12.857 8.72084L17.963 9.84371L21.7126 6.1656ZM21.6757 11.0428C27.9149 11.0905 32.9348 16.1892 32.8874 22.429C32.84 28.6672 27.7433 33.6866 21.5039 33.6389C15.2631 33.5918 10.2439 28.4954 10.2913 22.2572C10.3387 16.0174 15.4349 10.9957 21.6757 11.0428ZM21.5698 15.024C17.5328 15.024 14.2515 18.3083 14.2515 22.3428C14.2515 26.3781 17.5328 29.6604 21.5698 29.6604C25.6051 29.6604 28.8882 26.3781 28.8882 22.3428C28.8882 18.3083 25.6051 15.024 21.5698 15.024ZM21.5706 17.7202C24.119 17.7202 26.192 19.7936 26.192 22.3428C26.192 24.8911 24.119 26.9642 21.5706 26.9642C19.0213 26.9642 16.9477 24.8911 16.9477 22.3428C16.9477 19.7936 19.0213 17.7202 21.5706 17.7202Z" fill="#0BD8A2"/>
<path fill-rule="evenodd" clip-rule="evenodd" d="M84.316 15.2762C87.9926 15.2762 90.9376 16.4266 93.155 18.7235C95.3764 21.0535 96.4855 24.0783 96.4855 27.7963C96.4855 31.5078 95.3764 34.5363 93.155 36.8648C90.9376 39.1647 87.9926 40.3104 84.316 40.3104C80.6065 40.3104 77.6575 39.1647 75.473 36.8648C73.2533 34.5689 72.1465 31.5394 72.1465 27.7963C72.1465 24.0467 73.2533 21.0227 75.473 18.7235C77.6575 16.4266 80.6065 15.2762 84.316 15.2762ZM56.1401 4.36768C56.8712 4.36768 57.3578 4.93124 57.3578 5.60918V24.3539L66.8958 15.5874C67.2765 15.18 67.9 15.1693 68.2882 15.5748L69.2544 16.5898C69.4974 16.8329 69.6642 17.4047 69.4227 17.8971C69.3878 17.9585 69.2922 18.1253 69.2055 18.2153L61.0732 25.474L61.0474 25.5026L70.6278 36.8366C71.0399 37.3197 71.1151 37.8514 70.7926 38.3884C70.7161 38.5308 70.5681 38.6447 70.4387 38.7551L70.1151 39.03L68.9697 40.0091C68.4861 40.422 67.7839 40.4325 67.2772 39.9254L57.3578 28.0884V39.0992C57.3578 39.7856 56.8032 40.3106 56.1401 40.3106H54.2751C53.6295 40.3106 53.0571 39.8057 53.0571 39.0626V5.5071C53.0571 4.95758 53.5633 4.36768 54.2751 4.36768H56.1401ZM129.536 18.765C131.434 16.2306 134.13 15.1714 137.041 15.2805C138.565 15.361 140.061 15.6449 141.793 16.9547C142.7 17.6401 143.353 18.4106 144.065 19.7254C144.539 18.9433 145.123 18.0219 146.338 17.0379C148.083 15.7698 149.422 15.275 152.338 15.275C154.681 15.3665 156.857 16.2406 158.252 18.1651C159.464 19.8084 160.112 21.8256 160.112 24.2148V39.087C160.112 39.7627 159.587 40.3105 158.923 40.3105H156.991C156.334 40.3105 155.793 39.7627 155.793 39.087L155.793 25.4991C155.804 25.3332 156.157 19.1966 151.082 19.1966C145.095 19.1966 144.791 25.5025 144.791 25.5025V39.087C144.791 39.7627 144.258 40.3105 143.598 40.3105H141.694C141.028 40.3105 140.496 39.7627 140.496 39.087V25.0523C140.496 23.1 139.95 19.1856 135.86 19.1856C130.241 19.1856 129.536 24.7187 129.536 25.5025V39.087C129.536 39.7627 128.999 40.3105 128.342 40.3105H126.386C125.73 40.3105 125.193 39.7627 125.193 39.087V17.4518C125.193 16.7784 125.73 16.2283 126.386 16.2283H128.342C128.999 16.2283 129.536 16.7784 129.536 17.4518V18.765ZM222.126 15.2848C225.604 15.2848 228.357 16.9702 229.467 18.222C231.013 19.9315 231.787 21.9699 231.787 24.5291V39.0592C231.787 39.7505 231.243 40.3105 230.565 40.3105H228.776C228.108 40.3105 227.559 39.7505 227.559 39.0592V37.1135C226.586 37.9514 223.893 40.3105 218.829 40.3105C216.696 40.3105 215.056 39.6318 213.63 38.3715C212.142 37.0412 211.258 35.351 211.258 33.1996C211.258 30.8638 212.125 29.0334 213.861 27.6993C215.745 26.2497 218.439 25.5258 221.94 25.5258H226.786C227.504 25.5258 227.533 24.6919 227.513 24.4925C227.321 21.5417 225.088 20.1718 225.088 20.1718C225.088 20.1718 223.569 19.152 221.361 19.152C219.58 19.152 217.884 19.5601 216.937 20.5791C216.074 21.5071 215.467 21.5547 213.821 21.5569L213.452 21.557C212.273 21.557 212.347 20.3805 212.553 19.9855C215.093 15.1283 222.126 15.2881 222.126 15.2881V15.2848ZM110.528 15.2762C114.204 15.2762 117.15 16.4266 119.369 18.7235C121.59 21.0535 122.697 24.0783 122.697 27.7963C122.697 31.5078 121.59 34.5363 119.369 36.8648C117.15 39.1647 114.204 40.3104 110.528 40.3104C106.818 40.3104 103.873 39.1647 101.686 36.8648C99.466 34.5689 98.3577 31.5394 98.3577 27.7963C98.3577 24.0467 99.466 21.0227 101.686 18.7235C103.873 16.4266 106.818 15.2762 110.528 15.2762ZM199.072 15.2749C202.501 15.2749 205.211 16.4505 207.206 18.8377C209.077 21.0691 210.011 23.8383 210.011 27.1327C210.011 27.7298 209.823 28.233 209.436 28.6385C209.059 29.0476 207.898 29.2528 207.898 29.2528H192.312C192.312 32.2095 194.413 36.1069 199.248 36.3945C199.248 36.3945 203.548 36.7933 205.811 32.6836C205.811 32.6836 205.929 32.4802 206.105 32.2928C206.396 31.9811 206.963 31.6881 207.478 31.719C208.903 31.7965 210.107 31.5296 209.573 33.4056C209.573 33.4056 207.43 40.3104 199.05 40.3104C195.764 40.1296 193.103 38.9508 191.216 36.9829C189.13 34.8134 188.087 31.7398 188.087 27.7497C188.087 24.2903 188.96 21.4122 190.708 19.1241C192.668 16.5485 195.454 15.2749 199.072 15.2749ZM166.28 6.16582C166.952 6.16582 167.49 6.72237 167.49 7.40607V19.1968C169.522 16.7452 172.232 15.3326 175.189 15.3326C178.155 15.3326 180.689 16.4164 182.793 18.5869C185.115 20.9678 186.28 24.056 186.28 27.8242C186.28 31.6598 185.115 34.7483 182.793 37.1069C180.661 39.2458 178.118 40.3104 175.167 40.3104C172.224 40.3104 169.649 39.2997 167.49 37.1121V39.0654C167.49 39.7536 166.952 40.3104 166.28 40.3104H164.395C163.731 40.3104 163.189 39.7727 163.189 39.0847V7.38927C163.189 6.70582 163.731 6.16582 164.395 6.16582H166.28ZM174.598 19.466C171.988 19.466 167.49 21.2813 167.49 27.8362C167.49 35.7798 173.035 36.4387 174.598 36.4387C178.079 36.4387 180.398 34.8345 181.559 31.6259C181.926 30.558 182.11 29.334 182.11 27.9526C182.11 25.2484 181.406 23.1255 179.999 21.5898C178.66 20.1755 176.855 19.466 174.598 19.466ZM84.316 19.1968C86.405 19.1968 88.1674 19.8436 89.5923 21.1343C91.3045 22.7034 92.1575 24.9122 92.1575 27.7424C92.1575 30.6703 91.3045 32.9158 89.5923 34.4585C88.8321 35.1134 87.9816 35.6072 87.0493 35.921C86.1128 36.2375 85.1978 36.3945 84.2904 36.3945C83.3865 36.3945 82.4688 36.2375 81.5338 35.921C80.6008 35.6072 79.7585 35.1111 79.0146 34.4339C78.2687 33.7512 77.6575 32.8681 77.186 31.7598C76.7065 30.6618 76.4679 29.3272 76.4679 27.7647C76.4679 26.2129 76.7065 24.8821 77.186 23.7793C78.5128 20.726 80.8932 19.1968 84.316 19.1968ZM110.528 19.1968C107.106 19.1968 104.728 20.726 103.396 23.7793C102.917 24.8821 102.682 26.2129 102.682 27.7647C102.682 29.3272 102.917 30.6618 103.396 31.7598C103.873 32.8681 104.479 33.7512 105.228 34.4342V34.4339C105.97 35.1111 106.812 35.6072 107.747 35.921C108.679 36.2375 109.597 36.3945 110.503 36.3945C111.408 36.3945 112.326 36.2375 113.26 35.921C114.192 35.6072 115.043 35.1134 115.802 34.4585C117.513 32.9158 118.369 30.6703 118.369 27.7424C118.369 24.9122 117.513 22.7034 115.802 21.1343C114.378 19.8436 112.616 19.1968 110.528 19.1968ZM226.966 29.0469L222.912 29.0469C220.899 29.0469 219.322 29.3118 218.19 29.8287C217.06 30.3494 216.1 31.1322 216.056 32.4762C215.967 35.1368 217.861 36.3946 220.87 36.3946C222.2 36.3946 223.688 35.7062 224.839 35.042C225.841 34.4596 226.611 33.6761 227.251 32.7715C227.533 32.3814 227.538 31.8966 227.543 31.7547V29.599C227.543 29.0344 226.96 29.0469 226.96 29.0469L226.966 29.0469ZM199.072 19.1968C196.393 19.1968 194.376 20.4664 193.256 22.729C192.826 23.6055 192.508 24.4089 192.358 25.5022H205.792C205.46 23.3246 204.64 21.7496 203.397 20.6014C202.226 19.5231 200.755 19.1968 199.072 19.1968Z" fill="#01181C"/>
</svg>
